<?xml version="1.0" encoding="UTF-8"?>
<!-- Created with Inkscape (http://www.inkscape.org/) -->
<svg id="svg8" width="273.28pt" height="205.84pt" version="1.1" viewBox="0 0 273.28 205.84" xmlns="http://www.w3.org/2000/svg" xmlns:cc="http://creativecommons.org/ns#" xmlns:dc="http://purl.org/dc/elements/1.1/" xmlns:rdf="http://www.w3.org/1999/02/22-rdf-syntax-ns#">
 <metadata id="metadata5">
  <rdf:RDF>
   <cc:Work rdf:about="">
    <dc:format>image/svg+xml</dc:format>
    <dc:type rdf:resource="http://purl.org/dc/dcmitype/StillImage"/>
    <dc:title/>
   </cc:Work>
  </rdf:RDF>
 </metadata>
 <g id="layer1" transform="translate(241.51 17.321)">
  <g id="g2324" transform="matrix(3.236 0 0 3.236 540.02 -421.52)">
   <path id="path222" d="m-237.98 181.92c1.951 0 3.488 1.069 3.488 3.29 0 1.826-1.464 3.31-3.516 3.31-1.941 0-3.506-0.996-3.506-3.3 0-1.816 1.399-3.3 3.534-3.3zm-0.028 0.525c-1.26 0-1.996 1.272-1.996 2.858 0 1.963 0.901 2.645 1.932 2.645 1.104 0 2.07-0.921 2.07-2.931 0-1.595-0.819-2.572-2.006-2.572"/>
   <path id="path224" d="m-228.16 188.4c-0.295-0.018-0.552-0.046-0.81-0.046s-0.525 0.028-0.782 0.046c-0.194-0.627-0.405-1.263-0.635-1.89-0.396-9e-3 -0.782-0.018-1.178-0.018-0.322 0-0.635 9e-3 -0.957 0.018-0.249 0.627-0.451 1.254-0.626 1.89-0.147-0.018-0.285-0.046-0.432-0.046-0.148 0-0.286 0.028-0.46 0.046 0.45-1.023 1.831-4.305 2.622-6.407 0.12 0.019 0.23 0.046 0.35 0.046 0.119 0 0.23-0.027 0.349-0.046 0.783 2.102 1.859 4.904 2.559 6.407zm-2.439-2.434c-0.267-0.746-0.524-1.475-0.819-2.194-0.313 0.719-0.598 1.448-0.865 2.194h1.684"/>
   <path id="path226" d="m-225.93 185.5c0 1.328 0 2.314 0.074 2.895-0.203-0.018-0.451-0.046-0.755-0.046s-0.552 0.028-0.754 0.046c0.055-0.811 0.073-1.521 0.073-2.553v-1.254c0-1.033-0.018-1.742-0.073-2.554 0.202 0.019 0.45 0.046 0.754 0.046s0.552-0.027 0.755-0.046c-0.074 0.489-0.074 1.752-0.074 2.941 0.828-0.977 2.025-2.471 2.347-2.941 0.174 0.019 0.34 0.046 0.515 0.046 0.166 0 0.34-0.027 0.552-0.046-0.414 0.415-1.896 2.056-2.374 2.655 0.791 1.199 2.015 3.052 2.512 3.706-0.359-0.018-0.626-0.046-0.893-0.046-0.266 0-0.533 0.028-0.8 0.046-0.607-0.968-1.233-1.936-1.841-2.895h-0.018"/>
   <path id="path228" d="m-217.94 183.54c0-0.35 0-0.682-0.028-0.811-0.359 0-1.132 0.055-1.684 0.12 0.028-0.139 0.046-0.268 0.046-0.406s-0.018-0.267-0.046-0.406c0.838 0.028 1.252 0.046 2.393 0.046s1.555-0.018 2.337-0.046c-0.027 0.139-0.046 0.268-0.046 0.406s0.019 0.267 0.046 0.406c-0.497-0.065-1.27-0.12-1.638-0.12-0.018 0.129-0.018 0.461-0.018 0.811v2.305c0 1.032 0.018 1.742 0.073 2.553-0.202-0.018-0.451-0.046-0.754-0.046-0.304 0-0.552 0.028-0.755 0.046 0.055-0.811 0.074-1.521 0.074-2.553v-2.305"/>
   <path id="path230" d="m-213.99 184.59c0-1.033-0.019-1.742-0.074-2.554 0.543 0.01 1.095 0.046 1.638 0.046 0.902 0 1.675-0.018 1.923-0.046-0.018 0.111-0.036 0.222-0.036 0.387 0 0.194 0.018 0.277 0.036 0.415-0.699-0.046-1.803-0.11-2.079-0.11-0.046 0.673-0.046 1.336-0.046 2.009 0.8-0.018 1.389-0.037 2.089-0.073-0.037 0.212-0.046 0.295-0.046 0.414 0 0.102 0.018 0.185 0.046 0.378-0.7-0.055-1.39-0.083-2.089-0.083 0 0.388-9e-3 0.784-9e-3 1.18 0 0.388 9e-3 0.784 0.027 1.153 0.69 0 1.399-0.037 2.107-0.12-0.018 0.129-0.036 0.221-0.036 0.415 0 0.193 0.018 0.285 0.036 0.396-0.331-9e-3 -0.763-0.046-1.61-0.046-1.5 0-1.748 0.028-1.951 0.046 0.055-0.811 0.074-1.521 0.074-2.553v-1.254"/>
   <path id="path232" d="m-204.33 187.33c-0.101 0.258-0.175 0.525-0.202 0.783-0.488 0.258-1.123 0.406-1.878 0.406-2.135 0-3.395-1.337-3.395-3.079 0-2.544 1.721-3.521 3.653-3.521 0.644 0 1.454 0.193 1.877 0.451-0.119 0.304-0.184 0.627-0.211 0.94h-0.129c-0.46-0.571-0.93-0.82-1.583-0.82-0.985 0-2.098 0.857-2.098 2.812 0 1.899 1.123 2.645 2.181 2.645 0.589 0 1.27-0.276 1.665-0.691l0.12 0.074"/>
   <path id="path234" d="m-199 185.32c-0.469-9e-3 -0.929-0.037-1.398-0.037-0.461 0-0.93 0.019-1.399 0.037v0.526c0 1.032 0.018 1.742 0.073 2.553-0.202-0.018-0.45-0.046-0.754-0.046s-0.552 0.028-0.755 0.046c0.056-0.811 0.074-1.521 0.074-2.553v-1.254c0-1.033-0.018-1.742-0.074-2.554 0.203 0.019 0.451 0.046 0.755 0.046s0.552-0.027 0.754-0.046c-0.055 0.802-0.073 1.512-0.073 2.535 0.313 0.01 0.754 0.019 1.408 0.019 0.653 0 1.04-9e-3 1.389-0.019 0-1.023-0.018-1.733-0.073-2.535 0.202 0.019 0.451 0.046 0.754 0.046 0.304 0 0.552-0.027 0.755-0.046-0.055 0.812-0.074 1.521-0.074 2.554v1.254c0 1.032 0.019 1.742 0.074 2.553-0.203-0.018-0.451-0.046-0.755-0.046-0.303 0-0.552 0.028-0.754 0.046 0.055-0.811 0.073-1.521 0.073-2.553v-0.526"/>
   <path id="path236" d="m-195.97 182.03c0.138 0.028 0.276 0.046 0.415 0.046 0.138 0 0.276-0.018 0.414-0.046 1.325 1.466 2.641 2.923 3.993 4.388 0-1.465 0-3.973-0.064-4.388 0.138 0.028 0.276 0.046 0.414 0.046s0.276-0.018 0.414-0.046c-0.147 2.683-0.147 3.909-0.147 6.361-0.129-0.028-0.249-0.046-0.377-0.046-0.129 0-0.249 0.018-0.359 0.046-1.261-1.493-2.605-2.987-4.022-4.48-0.018 0.691-0.018 1.456-0.018 2.148 0 1.475 0.028 1.991 0.055 2.332-0.147-0.028-0.294-0.046-0.432-0.046s-0.286 0.018-0.424 0.046c0.046-0.267 0.184-2.646 0.184-4.526 0-0.83-0.036-1.392-0.046-1.835"/>
   <path id="path238" d="m-185.81 181.92c1.951 0 3.488 1.069 3.488 3.29 0 1.826-1.464 3.31-3.516 3.31-1.941 0-3.506-0.996-3.506-3.3 0-1.816 1.399-3.3 3.534-3.3zm-0.028 0.525c-1.26 0-1.997 1.272-1.997 2.858 0 1.963 0.902 2.645 1.933 2.645 1.104 0 2.07-0.921 2.07-2.931 0-1.595-0.819-2.572-2.006-2.572"/>
   <path id="path240" d="m-181.18 184.59c0-1.033-0.019-1.742-0.074-2.554 0.20199 0.019 0.45099 0.046 0.75499 0.046 0.303 0 0.552-0.027 0.75401-0.046-0.055 0.812-0.073 1.521-0.073 2.554v1.254c0 0.682 9e-3 1.382 0.018 1.862 0.69 0 1.399-0.037 2.107-0.12-0.018 0.129-0.037 0.221-0.037 0.415 0 0.193 0.019 0.285 0.037 0.396-0.331-9e-3 -0.764-0.046-1.61-0.046-1.5 0-1.749 0.028-1.951 0.046 0.055-0.811 0.074-1.521 0.074-2.553v-1.254"/>
   <path id="path242" d="m-173.54 181.92c1.951 0 3.488 1.069 3.488 3.29 0 1.826-1.463 3.31-3.515 3.31-1.942 0-3.506-0.996-3.506-3.3 0-1.816 1.398-3.3 3.533-3.3zm-0.027 0.525c-1.261 0-1.997 1.272-1.997 2.858 0 1.963 0.902 2.645 1.932 2.645 1.105 0 2.071-0.921 2.071-2.931 0-1.595-0.819-2.572-2.006-2.572"/>
   <path id="path244" d="m-163.65 183.41c-0.38601-0.553-0.975-0.922-1.812-0.922-1.141 0-2.319 0.95-2.319 2.885 0 1.466 0.819 2.572 2.236 2.572 0.31301 0 0.85601-0.064 1.003-0.166 0.027-0.147 0.027-0.377 0.027-0.645 0-0.995-0.055-1.41-0.064-1.585 0.12 0.018 0.304 0.046 0.681 0.046 0.442 0 0.626-0.028 0.745-0.046-0.046 0.193-0.073 0.958-0.073 1.548 0 0.387 9e-3 0.876 0.027 1.014-0.79999 0.231-1.647 0.406-2.457 0.406-2.116 0-3.635-1.208-3.635-3.088 0-2.342 1.648-3.512 3.81-3.512 0.93 0 1.555 0.202 2.218 0.553-0.10101 0.313-0.20301 0.626-0.258 0.94h-0.129"/>
   <path id="path246" d="m-159.32 184.8c0.49701-0.701 0.98501-1.862 1.39-2.766 0.138 0.019 0.276 0.046 0.423 0.046s0.285-0.027 0.44199-0.046c-0.405 0.692-1.335 2.369-1.924 3.531 0 0.295-0.018 0.599-0.018 0.903 0 0.609 9e-3 1.236 0.092 1.927-0.258-0.018-0.525-0.046-0.782-0.046-0.258 0-0.525 0.028-0.782 0.046 0.027-0.59 0.11-1.208 0.11-1.779 0-0.286-9e-3 -0.572-0.018-0.857-0.635-1.226-1.684-3.199-1.97-3.725 0.276 0.019 0.552 0.046 0.828 0.046 0.277 0 0.543-0.027 0.819-0.046 0.424 0.913 1.114 2.342 1.372 2.766h0.018"/>
   <path id="path250" d="m-203.48 134.44v-1.705l5.135-2.941 5.245 2.893v1.681" fill="none" stroke="#000" stroke-width=".576"/>
   <path id="path252" d="m-193.45 132.54-4.895-2.742-4.847 2.814 4.847 2.743z" fill="none" stroke="#000" stroke-width=".576"/>
   <path id="path254" d="m-199.79 130.65v-1.705l-5.249-2.873c-1.996 0.47-3.404 1.043-5.195 1.94-0.04 0.02-0.736 0.408-0.776 0.429v1.609" fill="none" stroke="#000" stroke-width=".576"/>
   <path id="path256" d="m-204.93 131.55v2.042" fill="none" stroke="#000" stroke-width=".576"/>
   <path id="path258" d="m-185.69 130.02v-1.585c-1.787-0.928-4.085-1.927-6.052-2.416l-5.143 2.896v1.777" fill="none" stroke="#000" stroke-width=".576"/>
   <path id="path260" d="m-191.72 131.58v1.945" fill="none" stroke="#000" stroke-width=".576"/>
   <path id="path262" d="m-194.24 127.47v-1.991c-1.591-0.173-2.851-0.283-4.11-0.283-1.191 0-3.112 0.211-4.093 0.293l7e-3 1.981" fill="none" stroke="#000" stroke-width=".576"/>
   <path id="path264" d="m-202.31 125.49 4.008 2.346 3.984-2.346" fill="none" stroke="#000" stroke-width=".576"/>
   <path id="path266" d="m-198.34 127.79v2.005" fill="none" stroke="#000" stroke-width=".576"/>
   <path id="path268" d="m-203.57 141.89v-1.633l5.183-2.917 5.078 2.869v1.705" fill="none" stroke="#000" stroke-width=".576"/>
   <path id="path270" d="m-193.66 140.03-4.728-2.695-4.847 2.791 4.823 2.694z" fill="none" stroke="#000" stroke-width=".576"/>
   <path id="path272" d="m-198.39 142.82v1.97" fill="none" stroke="#000" stroke-width=".576"/>
   <path id="path274" d="m-210.05 138.28v-1.801l5.135-2.917 5.174 2.965v1.561" fill="none" stroke="#000" stroke-width=".576"/>
   <path id="path276" d="m-196.91 138.19v-1.777l5.183-2.869 4.981 2.797v1.609" fill="none" stroke="#000" stroke-width=".576"/>
   <path id="path278" d="m-187.07 136.16-4.655-2.623-4.895 2.791 4.703 2.694z" fill="none" stroke="#000" stroke-width=".576"/>
   <path id="path280" d="m-191.91 139.02v1.969" fill="none" stroke="#000" stroke-width=".576"/>
   <path id="path282" d="m-203.77 149.57v-1.729l5.399-3.037 4.934 2.797v1.705" fill="none" stroke="#000" stroke-width=".576"/>
   <path id="path284" d="m-193.76 147.48-4.608-2.671-5.111 2.935 4.847 2.682z" stroke="#000" stroke-width=".576"/>
   <path id="path286" d="m-210.33 145.9v-1.754l5.375-3.036 5.054 2.82v1.729" fill="none" stroke="#000" stroke-width=".576"/>
   <path id="path288" d="m-200.21 143.82-4.752-2.718-5.087 2.91 4.776 2.743z" fill="none" stroke="#000" stroke-width=".576"/>
   <path id="path290" d="m-197.03 145.54v-1.585l5.111-2.964 4.958 2.868v1.705" fill="none" stroke="#000" stroke-width=".576"/>
   <path id="path292" d="m-187.26 143.68-4.656-2.694-4.799 2.814 4.679 2.694z" fill="none" stroke="#000" stroke-width=".576"/>
   <path id="path294" d="m-192.03 146.49v1.969" fill="none" stroke="#000" stroke-width=".576"/>
   <path id="path296" d="m-210.57 153.41v-1.657l5.328-2.965 4.933 2.772v1.922" fill="none" stroke="#000" stroke-width=".576"/>
   <path id="path298" d="m-200.59 151.46-4.655-2.67-4.991 2.886 4.703 2.623z" fill="none" stroke="#000" stroke-width=".576"/>
   <path id="path300" d="m-205.53 154.3v2.186" fill="none" stroke="#000" stroke-width=".576"/>
   <path id="path302" d="m-197.39 153.22v-1.682l5.207-3.006 5.078 2.742v1.753" fill="none" stroke="#000" stroke-width=".576"/>
   <path id="path304" d="m-187.38 151.15-4.656-2.694-5.063 2.982 4.656 2.647z" fill="none" stroke="#000" stroke-width=".576"/>
   <path id="path306" d="m-192.44 154.08v2.065" fill="none" stroke="#000" stroke-width=".576"/>
   <path id="path308" d="m-217.09 149.69v-1.681l5.327-2.965 5.101 2.845v1.657" fill="none" stroke="#000" stroke-width=".576"/>
   <path id="path310" d="m-211.95 150.67v1.969" fill="none" stroke="#000" stroke-width=".576"/>
   <path id="path312" d="m-223.59 153.44v-1.729l4.799-2.743 5.366 2.791v1.777" fill="none" stroke="#000" stroke-width=".576"/>
   <path id="path314" d="m-213.7 151.65-4.8-2.766-4.799 2.742 4.895 2.767z" fill="none" stroke="#000" stroke-width=".576"/>
   <path id="path316" d="m-218.4 154.39v2.041" fill="none" stroke="#000" stroke-width=".576"/>
   <path id="path318" d="m-216.93 157.33v-1.825l4.968-2.844 4.958 2.748v1.945" fill="none" stroke="#000" stroke-width=".576"/>
   <path id="path320" d="m-207.33 155.33-4.608-2.646-4.656 2.766 4.584 2.622z" fill="none" stroke="#000" stroke-width=".576"/>
   <path id="path322" d="m-212 158.07v2.209" fill="none" stroke="#000" stroke-width=".576"/>
   <path id="path324" d="m-220.07 149.69v-1.705l-3.814-2.145c-0.289 1.141-0.416 2.69-0.505 4.361" fill="none" stroke="#000" stroke-width=".576"/>
   <path id="path326" d="m-222.92 160.5v-1.417l4.488-2.653 4.958 2.749v1.945" fill="none" stroke="#000" stroke-width=".576"/>
   <path id="path328" d="m-218.07 161.64v2.137" fill="none" stroke="#000" stroke-width=".576"/>
   <path id="path330" d="m-219.85 157.23v-1.705l-4.499-2.506c-3e-3 1.143 0.296 2.874 0.637 4.453" fill="none" stroke="#000" stroke-width=".576"/>
   <path id="path332" d="m-216.88 142.17v-1.753l5.4-3.085 5.149 2.965v1.609" fill="none" stroke="#000" stroke-width=".576"/>
   <path id="path334" d="m-206.68 140.13-4.799-2.791-5.088 2.959 4.8 2.742z" fill="none" stroke="#000" stroke-width=".576"/>
   <path id="path336" d="m-211.76 143.03v2.018" fill="none" stroke="#000" stroke-width=".576"/>
   <path id="path338" d="m-223.64 146.06v-1.802l5.279-2.988 5.077 2.892v1.73" fill="none" stroke="#000" stroke-width=".576"/>
   <path id="path340" d="m-213.56 144.02-4.799-2.742-5.015 2.886 4.775 2.719z" fill="none" stroke="#000" stroke-width=".576"/>
   <path id="path342" d="m-206.38 134.44v-1.729l-6.048-3.387c-1.547 0.933-2.7 1.952-4.023 3.204l-0.022 2.002" fill="none" stroke="#000" stroke-width=".576"/>
   <path id="path344" d="m-211.5 135.35v1.993" fill="none" stroke="#000" stroke-width=".576"/>
   <path id="path346" d="m-213 138.11v-1.609l-4.716-2.698c-1.09 1.187-2.312 2.839-3.147 4.235v1.681" fill="none" stroke="#000" stroke-width=".576"/>
   <path id="path348" d="m-218.38 139.26v2.017" fill="none" stroke="#000" stroke-width=".576"/>
   <path id="path350" d="m-222.57 143.73-9.8e-4 -2.126c0.339-0.841 0.559-1.372 0.979-2.143l1.745 0.817v1.825" fill="none" stroke="#000" stroke-width=".576"/>
   <path id="path352" d="m-180.29 134.38-5e-3 -1.982c-1.377-1.319-2.598-2.16-4.097-3.049l-5.849 3.317v1.705" fill="none" stroke="#000" stroke-width=".576"/>
   <path id="path354" d="m-185.34 135.15v2.017" fill="none" stroke="#000" stroke-width=".576"/>
   <path id="path356" d="m-190.44 141.86v-1.777l5.064-2.917 5.101 2.797v1.777" fill="none" stroke="#000" stroke-width=".576"/>
   <path id="path358" d="m-207.02 147.79-4.751-2.743-4.991 2.839 4.799 2.79z" stroke="#000" stroke-width=".576"/>
   <path id="path360" d="m-180.57 139.81-4.799-2.646-4.823 2.814 4.655 2.695z" stroke="#000" stroke-width=".576"/>
   <path id="path362" d="m-185.54 142.67v1.993" fill="none" stroke="#000" stroke-width=".576"/>
   <path id="path364" d="m-183.53 138.16v-2.041l4.325-2.503c1.121 1.149 2.143 2.472 2.848 3.763v1.982" fill="none" stroke="#000" stroke-width=".576"/>
   <path id="path366" d="m-178.89 138.8v1.97" fill="none" stroke="#000" stroke-width=".576"/>
   <path id="path368" d="m-190.58 149.43v-1.825l5.039-2.917 4.934 2.725v1.705" fill="none" stroke="#000" stroke-width=".576"/>
   <path id="path370" d="m-180.88 147.33-4.656-2.647-4.775 2.791 4.655 2.67z" fill="none" stroke="#000" stroke-width=".576"/>
   <path id="path372" d="m-185.66 150.14v2.018" fill="none" stroke="#000" stroke-width=".576"/>
   <path id="path374" d="m-184.04 145.54v-1.753l5.136-2.989 4.751 2.671v1.993" fill="none" stroke="#000" stroke-width=".576"/>
   <path id="path376" d="m-174.42 143.28-4.478-2.485-4.871 2.887 4.655 2.67z" fill="none" stroke="#000" stroke-width=".576"/>
   <path id="path378" d="m-179.13 146.35v1.969" fill="none" stroke="#000" stroke-width=".576"/>
   <path id="path380" d="m-177.13 141.81v-2.017l1.629-0.948c0.363 0.617 0.863 1.411 1.199 2.514v2.037" fill="none" stroke="#000" stroke-width=".576"/>
   <path id="path382" d="m-191.06 156.85v-1.585l5.399-3.133 4.982 2.821v1.609" fill="none" stroke="#000" stroke-width=".576"/>
   <path id="path384" d="m-200.06 136.38-4.848-2.815-4.823 2.791 4.799 2.79z" stroke="#000" stroke-width=".576"/>
   <path id="path386" d="m-181.05 154.78-4.608-2.647-5.063 2.983 4.656 2.598z" stroke="#000" stroke-width=".576"/>
   <path id="path388" d="m-186.06 157.71v1.994" fill="none" stroke="#000" stroke-width=".576"/>
   <path id="path390" d="m-184.23 152.98v-1.705l4.847-2.862 5.15 2.694v1.657" fill="none" stroke="#000" stroke-width=".576"/>
   <path id="path392" d="m-174.51 150.98-4.656-2.67-4.751 2.814 4.583 2.622z" fill="none" stroke="#000" stroke-width=".576"/>
   <path id="path394" d="m-179.33 153.74v1.969" fill="none" stroke="#000" stroke-width=".576"/>
   <path id="path396" d="m-177.39 149.37v-2.041l4.254-2.466c0.441 1.525 0.682 3.672 0.769 5.345" fill="none" stroke="#000" stroke-width=".576"/>
   <path id="path398" d="m-184.71 160.33v-1.489l5.375-3.108 5.437 2.988v1.345" fill="none" stroke="#000" stroke-width=".576"/>
   <path id="path400" d="m-174.48 158.5-4.848-2.766-5.063 2.982 4.896 2.767z" fill="none" stroke="#000" stroke-width=".576"/>
   <path id="path402" d="m-179.49 161.48v1.969" fill="none" stroke="#000" stroke-width=".576"/>
   <path id="path404" d="m-177.85 156.49v-1.657l5.063-2.893 0.441 0.259c0 1.605-0.282 3.623-0.724 5.101" fill="none" stroke="#000" stroke-width=".576"/>
   <path id="path406" d="m-178.14 164.39v-1.855l4.179-2.308c-0.348 1.156-0.963 2.57-1.555 3.533" fill="none" stroke="#000" stroke-width=".576"/>
   <path id="path408" d="m-219.64 164.58v-1.873l-3.061-1.701c0.339 0.915 0.778 1.701 1.213 2.565" fill="none" stroke="#000" stroke-width=".576"/>
   <path id="path410" d="m-213.75 159.05-4.68-2.623-4.152 2.502 4.584 2.719z" stroke="#000" stroke-width=".576"/>
   <path id="path412" d="m-186.05 128.28c-1.683-0.863-3.571-1.727-5.717-2.26l-4.831 2.794 4.895 2.742z" stroke="#000" stroke-width=".576"/>
   <path id="path414" d="m-210.56 128.4c0.04-0.021 0.289-0.369 0.329-0.389 1.791-0.897 3.199-1.47 5.195-1.94l4.971 2.747-4.872 2.766z" fill="none" stroke="#000" stroke-width=".576"/>
   <path id="path416" d="m-206.68 132.6-5.746-3.272c-1.554 0.937-2.498 2.071-3.821 3.299l4.744 2.752z" fill="none" stroke="#000" stroke-width=".576"/>
   <path id="path418" d="m-213.3 136.38-4.438-2.548c-1.09 1.187-2.155 2.516-2.991 4.056l2.366 1.403z" fill="none" stroke="#000" stroke-width=".576"/>
   <path id="path420" d="m-220.15 140.27-1.443-0.835c-0.42 0.795-0.386 1.057-0.725 1.897z" fill="none" stroke="#000" stroke-width=".576"/>
   <path id="path422" d="m-224.38 150.21c0.089-1.67 0.214-3.225 0.503-4.366l3.524 2.031z" fill="none" stroke="#000" stroke-width=".576"/>
   <path id="path424" d="m-220.15 155.42-4.221-2.404c0.021 1.143 0.32 2.874 0.661 4.453z" fill="none" stroke="#000" stroke-width=".576"/>
   <path id="path426" d="m-219.84 162.56-2.759-1.648c0.243 1.012 0.682 1.798 1.117 2.662z" fill="none" stroke="#000" stroke-width=".576"/>
   <path id="path428" d="m-189.96 132.55 5.561-3.226c1.499 0.889 2.72 1.754 3.865 3.057l-4.77 2.78z" fill="none" stroke="#000" stroke-width=".576"/>
   <path id="path430" d="m-198.34 135.33v2.005" fill="none" stroke="#000" stroke-width=".576"/>
   <path id="path432" d="m-218.55 146.9v2.017" fill="none" stroke="#000" stroke-width=".576"/>
   <path id="path434" d="m-204.95 139.14v1.969" fill="none" stroke="#000" stroke-width=".576"/>
   <path id="path436" d="m-183.13 136.02 3.925-2.405c1.126 1.154 1.715 2.257 2.659 3.75l-2.304 1.471z" fill="none" stroke="#000" stroke-width=".576"/>
   <path id="path438" d="m-174.63 141.14c-0.36-1.079-0.509-1.682-0.872-2.299l-1.301 0.89z" fill="none" stroke="#000" stroke-width=".576"/>
   <path id="path440" d="m-177.39 147.33 4.254-2.466c0.441 1.525 0.704 3.637 0.791 5.334l-0.462-0.222-4.535-2.622" fill="none" stroke="#000" stroke-width=".576"/>
   <path id="path442" d="m-177.56 154.73 4.775-2.791 0.441 0.259c0 1.461-0.25 3.695-0.724 5.101z" fill="none" stroke="#000" stroke-width=".576"/>
   <path id="path444" d="m-198.63 150.44v2.09" fill="none" stroke="#000" stroke-width=".576"/>
   <path id="path446" d="m-199.39 177.35h7.336v-11.336l9.8 5.786c2.257-1.886 4.505-4.097 5.834-6.587l-22.275-12.696-21.722 12.673c1.592 2.561 3.553 4.58 5.81 6.466l9.559-5.642v11.336z" fill="none" stroke="#000" stroke-width=".576"/>
   <path id="path448" d="m-177.83 162.46 3.692-2.156c-0.348 1.157-0.74 2.273-1.38 3.429z" fill="none" stroke="#000" stroke-width=".576"/>
   <path id="path450" d="m-205.24 146.73v2.041" fill="none" stroke="#000" stroke-width=".576"/>
  </g>
 </g>
</svg>
